<svg xmlns="http://www.w3.org/2000/svg" width="433" height="401.662" viewBox="0 0 433 401.662">
  <g id="undraw_decide_3iwx" transform="translate(9.116)">
    <ellipse id="Ellipse_44" data-name="Ellipse 44" cx="10.311" cy="10.311" rx="10.311" ry="10.311" transform="translate(345.948 0)" fill="#950abe"/>
    <ellipse id="Ellipse_45" data-name="Ellipse 45" cx="6.505" cy="6.505" rx="6.505" ry="6.505" transform="translate(302.236 26.168)" fill="#950abe"/>
    <ellipse id="Ellipse_46" data-name="Ellipse 46" cx="4.646" cy="4.646" rx="4.646" ry="4.646" transform="translate(260.071 47.594)" fill="#950abe"/>
    <ellipse id="Ellipse_47" data-name="Ellipse 47" cx="55.206" cy="6.289" rx="55.206" ry="6.289" transform="translate(150.763 353.908)" fill="#f1f1f1"/>
    <path id="Path_84" data-name="Path 84" d="M216.5,0C336.07,0,433,6.716,433,15S336.07,30,216.5,30,0,23.284,0,15,96.93,0,216.5,0Z" transform="translate(-9.116 351.455)" fill="#2d2d2d" opacity="0.19"/>
    <path id="Path_67" data-name="Path 67" d="M677.671,2.447,539.446,58.269v190.5l138.225,58.48Z" transform="translate(-278.313 92.903)" fill="#3f3d56" stroke="#3f3d56" stroke-miterlimit="10" stroke-width="2"/>
    <line id="Line_7" data-name="Line 7" x2="100.504" y2="16.802" transform="translate(276.398 268.648)" fill="none" stroke="#fff" stroke-miterlimit="10" stroke-width="2"/>
    <line id="Line_8" data-name="Line 8" x2="101.768" y2="15.275" transform="translate(276.398 248.688)" fill="none" stroke="#fff" stroke-miterlimit="10" stroke-width="2"/>
    <line id="Line_9" data-name="Line 9" x2="104.927" y2="13.027" transform="translate(276.398 227.553)" fill="none" stroke="#fff" stroke-miterlimit="10" stroke-width="2"/>
    <path id="Path_68" data-name="Path 68" d="M653.292,283.285v20.357l-70.469-4.7v-15.66Z" transform="translate(-283.761 -103.959)" fill="#2196f3"/>
    <path id="Path_69" data-name="Path 69" d="M654.865,283.285V304.1l-72.042-4.8v-.8l70.44,4V283.285Z" transform="translate(-283.761 -104.413)" opacity="0.2"/>
    <path id="Path_75" data-name="Path 75" d="M583.464,692.069s-2.1,9.084-1.4,12.578.7,11.181.7,11.181h2.1v-8.386s5.591,2.8,6.988,6.988,16.073,2.8,16.771,1.4-6.988-4.193-6.988-4.193l-6.289-18.868Z" transform="translate(-392.52 -356.679)" fill="#2f2e41"/>
    <path id="Path_76" data-name="Path 76" d="M576.028,538.63s3.494,12.579,3.494,17.47-2.8,67.784,0,67.784,13.976,1.4,14.675-1.4-1.4-28.651,0-31.446,11.181-62.193,10.482-62.893S579.522,525.352,576.028,538.63Z" transform="translate(-389.976 -285.699)" fill="#2f2e41"/>
    <path id="Path_77" data-name="Path 77" d="M571.28,523.987s-6.289,16.771-.7,16.771,9.084-4.892,13.277-3.494,16.771-16.073,16.771-16.073Z" transform="translate(-386.626 -282.936)" fill="#3f3d56"/>
    <ellipse id="Ellipse_49" data-name="Ellipse 49" cx="11.181" cy="11.181" rx="11.181" ry="11.181" transform="translate(199.679 148.459)" fill="#ffb9b9"/>
    <path id="Path_78" data-name="Path 78" d="M616.771,388.774s-4.892,16.073-3.494,18.169-13.277-.7-13.277-.7,4.892-13.277,4.193-16.073S616.771,388.774,616.771,388.774Z" transform="translate(-400.321 -225.639)" fill="#ffb9b9"/>
    <path id="Path_79" data-name="Path 79" d="M593.256,407.387s-6.289-2.1-8.386,0-9.783,51.712-14.675,56.6S561.81,475.87,566,476.568s38.434,4.892,39.832,2.8,1.048-22.711.349-27.6S600.244,408.085,593.256,407.387Z" transform="translate(-384.842 -233.421)" fill="#2196f3"/>
    <path id="Path_80" data-name="Path 80" d="M436.869,434.675l2.8,6.988,6.289-4.892-.7-4.891Z" transform="translate(-234.045 -191.528)" fill="#ffb9b9"/>
    <path id="Path_81" data-name="Path 81" d="M590.039,425.912s-.349-8.735-4.542,2.446-13.277,25.856-5.59,37.037,7.9,16.06,11.53,15.723,15.024,3.843,15.024,2.446S593.184,460.5,593.184,460.5a12.865,12.865,0,0,1,3.494-11.181C601.569,444.431,599.123,428.009,590.039,425.912Z" transform="translate(-390.36 -240.416)" opacity="0.1"/>
    <path id="Path_82" data-name="Path 82" d="M592.46,412.969s-7.687-1.4-11.88,9.783-13.277,25.856-5.59,37.037,11.606,22.336,15.237,22,11.318-2.433,11.318-3.83S588.267,454.9,588.267,454.9a12.865,12.865,0,0,1,3.494-11.181C596.652,438.824,601.544,415.065,592.46,412.969Z" transform="translate(-388.238 -236.207)" fill="#2196f3"/>
    <path id="Path_83" data-name="Path 83" d="M587.26,353.372c-5.75-.812-11.419,2.831-14.6,7.69s-4.332,10.74-5.17,16.486a19.7,19.7,0,0,1-1.183,5.074c-1.39,3.192-4.537,5.6-5.049,9.046-.324,2.178.488,4.341.911,6.5,1.126,5.74-.542,11.776-3.6,16.76-1.366,2.225-3.358,4.473-5.968,4.553l5.469.848a9.547,9.547,0,0,1-4.526,4.625,27.713,27.713,0,0,0,24.24-26.393c.079-1.98-.017-4.105,1.059-5.769.931-1.44,2.555-2.239,4.03-3.111,5.07-3,9.307-7.966,9.984-13.818a49.845,49.845,0,0,0-.2-7.716c-.107-2.708,4.441-4.536,5.054-7.129C598.645,357.079,590.878,353.883,587.26,353.372Z" transform="translate(-379.865 -210.463)" fill="#2f2e41"/>
  </g>
</svg>
