<svg xmlns="http://www.w3.org/2000/svg" width="389.344" height="366.406" viewBox="0 0 389.344 366.406">
  <g id="undraw_progress_tracking_7hvk" transform="translate(0 52.433)">
    <ellipse id="Ellipse_24" data-name="Ellipse 24" cx="194.672" cy="13.067" rx="194.672" ry="13.067" transform="translate(0 287.84)" fill="#3f3d56"/>
    <ellipse id="Ellipse_25" data-name="Ellipse 25" cx="127.307" cy="9.707" rx="127.307" ry="9.707" transform="translate(113.824 290.08)" opacity="0.1"/>
    <path id="Path_43" data-name="Path 43" d="M269.917,735.4l1.993,22.923,8.97,1.993,1.993-5.98s-3.488-16.444-3.488-19.434Z" transform="translate(-198.476 -471.549)" fill="#a0616a"/>
    <path id="Path_44" data-name="Path 44" d="M327.052,693.52s-3.987,9.966-5.482,10.963,4.485,13.953,4.485,13.953l8.97-1.495s-2.99-10.465-.5-16.445Z" transform="translate(-230.695 -445.619)" fill="#a0616a"/>
    <path id="Path_45" data-name="Path 45" d="M318.023,708.87s-3.737,1.246-5.232,6.727a54.775,54.775,0,0,0-1.495,5.98l2.492,5.482h1.495s2.492,8.471,1.993,11.461,3.488,14.451,10.465,13.953,5.482-8.97,5.482-8.97l-3.488-17.441s0-4.485-1-4.485-8.97,1.495-8.97,1.495v1.495S314.036,716.843,318.023,708.87Z" transform="translate(-224.407 -455.238)" fill="#2f2e41"/>
    <path id="Path_46" data-name="Path 46" d="M271.49,781.339v-2.99s-10.465,1.495-10.465,2.99v3.488s-8.97,18.936,1,18.936,11.96-3.987,11.96-3.987V794.3s4.983-2.492,4.983-3.987-4.863-14.7-4.863-14.7S273.982,783.333,271.49,781.339Z" transform="translate(-190.581 -497.061)" fill="#2f2e41"/>
    <circle id="Ellipse_26" data-name="Ellipse 26" cx="15.946" cy="15.946" r="15.946" transform="translate(53.003 5.718)" fill="#80535a"/>
    <path id="Path_47" data-name="Path 47" d="M246.559,111.867s1.993,9.468,1.993,10.465,9.468,5.482,9.468,5.482l8.471-1.495,2.99-8.97s-4.983-7.475-4.983-10.465Z" transform="translate(-183.838 -77.994)" fill="#80535a"/>
    <path id="Path_48" data-name="Path 48" d="M215.271,131.538s5.144,8.38,12.619,5.889a10.309,10.309,0,0,0,7.312-9.636l24.58,8.64L255.3,172.808l3.987,42.357-2.99,5.481H212.441s-1.495-7.475-1.993-7.475-1.495-1.495-1-1.993,1.495-1,1-2.492-1-17.939-1-17.939L194.5,147.394Z" transform="translate(-151.216 -91.096)" fill="#2196f3"/>
    <path id="Path_49" data-name="Path 49" d="M199.174,384.332l8.97,11.96s1.495-12.458,3.488-12.956l-4.983-3.488Z" transform="translate(-154.144 -249.051)" fill="#a0616a"/>
    <path id="Path_50" data-name="Path 50" d="M457.765,366.5s13.455,8.471,11.96,13.953-16.943-9.468-16.943-9.966S457.765,366.5,457.765,366.5Z" transform="translate(-313.072 -240.686)" fill="#a0616a"/>
    <path id="Path_51" data-name="Path 51" d="M229.139,363.99h-1l-1.495,6.976a16.65,16.65,0,0,0-3.987,17.94l7.973,52.323,1,60.795,8.97,2.492,9.966-1.993,2.492-81.226s3.488-7.475,1.993-9.966.5-1.993.5-1.993l10.465,28.9s-3.488,9.468,0,12.458c0,0-.5,1.495,0,1.993s2.99,2.492,1.993,3.488-1.495,0-1.495,1.495-4.983,13.953-2.99,29.9L270,497.539l5.98-3.488,10.963-30.9s-2.492-4.485,0-5.482,2.99-1.993,1.993-3.488-1-6.478.5-8.97,0-6.478,0-6.478l-5.481-50.33s2.492-13.455-5.98-20.431l-1.5-5.482S264.022,371.465,229.139,363.99Z" transform="translate(-168.163 -238.177)" fill="#2f2e41"/>
    <path id="Path_52" data-name="Path 52" d="M219.908,38.317s5.063-10.97,14.767-8.438S249.863,36.208,250.285,40a54.177,54.177,0,0,1-.211,9.493s-1.055-7.805-7.805-6.118-17.3.422-17.3.422l-1.688,15.189s-1.9-2.742-4.008-1.055S213.157,41.693,219.908,38.317Z" transform="translate(-164.787 -29.5)" fill="#2f2e41"/>
    <path id="Path_53" data-name="Path 53" d="M186.084,180.3h-7.475s-6.478,5.482-5.98,15.946l-3.488,29.4s0,14.451,5.98,24.916l6.478,12.458s2.492-6.976,9.966-5.98l-3.987-10.465v-2.492a10.893,10.893,0,0,1-1.495-2.492c0-.5,1.993-.5.5-1.495s-2.99-10.963-2.99-10.963a8.419,8.419,0,0,1,1-2.492c.5-.5-.5-1.993-.5-1.993l1-1.495,6.478-24.418Z" transform="translate(-135.323 -124)" fill="#2196f3"/>
    <path id="Path_54" data-name="Path 54" d="M344.994,146.928l8.471,1.495s4.983,4.983,6.976,10.963l3.987,17.939,6.478,12.956s7.475,7.475,12.956,24.418l7.973,14.95-8.471,4.983s-23.421-27.408-26.411-36.876L344,172.841Z" transform="translate(-244.9 -103.088)" fill="#2196f3"/>
    <rect id="Rectangle_20" data-name="Rectangle 20" width="204.214" height="184.054" transform="translate(147.424 117.974)" fill="#008bf9"/>
    <rect id="Rectangle_21" data-name="Rectangle 21" width="5.71" height="137.014" transform="translate(144.65 144.107)" fill="#536dfe"/>
    <rect id="Rectangle_22" data-name="Rectangle 22" width="26.507" height="0.747" transform="translate(273.05 145.04)" fill="#f2f2f2"/>
    <rect id="Rectangle_23" data-name="Rectangle 23" width="26.88" height="4.48" transform="translate(273.05 139.067)" fill="#f2f2f2"/>
    <path id="Path_55" data-name="Path 55" d="M775.557,736.207H758.384V726.5H770.8v.747H759.131v8.213h15.68v-4.68h.747Z" transform="translate(-475.253 -455.273)" fill="#f2f2f2"/>
    <rect id="Rectangle_24" data-name="Rectangle 24" width="123.574" height="2.987" transform="translate(175.984 160.72)" fill="#f2f2f2"/>
    <rect id="Rectangle_25" data-name="Rectangle 25" width="123.574" height="2.987" transform="translate(175.984 174.534)" fill="#f2f2f2"/>
    <rect id="Rectangle_26" data-name="Rectangle 26" width="123.574" height="2.987" transform="translate(175.984 188.347)" fill="#f2f2f2"/>
    <rect id="Rectangle_27" data-name="Rectangle 27" width="123.574" height="2.987" transform="translate(175.984 202.16)" fill="#f2f2f2"/>
    <rect id="Rectangle_28" data-name="Rectangle 28" width="123.574" height="2.987" transform="translate(175.984 215.974)" fill="#f2f2f2"/>
    <rect id="Rectangle_29" data-name="Rectangle 29" width="123.574" height="2.987" transform="translate(175.984 229.787)" fill="#f2f2f2"/>
    <rect id="Rectangle_30" data-name="Rectangle 30" width="123.574" height="2.987" transform="translate(175.984 243.6)" fill="#f2f2f2"/>
    <rect id="Rectangle_31" data-name="Rectangle 31" width="123.574" height="2.987" transform="translate(175.984 257.414)" fill="#f2f2f2"/>
    <circle id="Ellipse_27" data-name="Ellipse 27" cx="4.853" cy="4.853" r="4.853" transform="translate(313.37 157.36)" fill="#950abe"/>
    <circle id="Ellipse_28" data-name="Ellipse 28" cx="4.853" cy="4.853" r="4.853" transform="translate(313.37 171.174)" fill="#f2f2f2"/>
    <circle id="Ellipse_29" data-name="Ellipse 29" cx="4.853" cy="4.853" r="4.853" transform="translate(313.37 184.987)" fill="#950abe"/>
    <circle id="Ellipse_30" data-name="Ellipse 30" cx="4.853" cy="4.853" r="4.853" transform="translate(313.37 198.8)" fill="#f2f2f2"/>
    <circle id="Ellipse_31" data-name="Ellipse 31" cx="4.853" cy="4.853" r="4.853" transform="translate(313.37 212.614)" fill="#f2f2f2"/>
    <circle id="Ellipse_32" data-name="Ellipse 32" cx="4.853" cy="4.853" r="4.853" transform="translate(313.37 226.427)" fill="#f2f2f2"/>
    <circle id="Ellipse_33" data-name="Ellipse 33" cx="4.853" cy="4.853" r="4.853" transform="translate(313.37 240.24)" fill="#950abe"/>
    <circle id="Ellipse_34" data-name="Ellipse 34" cx="4.853" cy="4.853" r="4.853" transform="translate(313.37 254.054)" fill="#950abe"/>
    <path id="Path_56" data-name="Path 56" d="M774.861,726.285l-4.184-4.184.528-.528,3.656,3.656L785.8,714.293l.528.528Z" transform="translate(-482.957 -447.623)" fill="#950abe"/>
    <ellipse id="Ellipse_35" data-name="Ellipse 35" cx="25.76" cy="1.493" rx="25.76" ry="1.493" transform="translate(266.144 284.854)" opacity="0.1"/>
    <path id="Path_57" data-name="Path 57" d="M155.055,663.707c-.086-.14-2.106-3.513-2.806-10.518-.642-6.426-.229-17.258,5.388-32.367,10.642-28.624-2.453-51.719-2.586-51.949l.646-.375a57.33,57.33,0,0,1,5.409,15.323,66.85,66.85,0,0,1-2.769,37.261c-10.624,28.575-2.726,42.1-2.645,42.236Z" transform="translate(-124.595 -367.272)" fill="#3f3d56"/>
    <circle id="Ellipse_36" data-name="Ellipse 36" cx="4.853" cy="4.853" r="4.853" transform="translate(21.445 190.214)" fill="#536dfe"/>
    <circle id="Ellipse_37" data-name="Ellipse 37" cx="4.853" cy="4.853" r="4.853" transform="translate(36.752 208.134)" fill="#536dfe"/>
    <circle id="Ellipse_38" data-name="Ellipse 38" cx="4.853" cy="4.853" r="4.853" transform="translate(26.298 220.08)" fill="#536dfe"/>
    <circle id="Ellipse_39" data-name="Ellipse 39" cx="4.853" cy="4.853" r="4.853" transform="translate(38.992 230.16)" fill="#536dfe"/>
    <circle id="Ellipse_40" data-name="Ellipse 40" cx="4.853" cy="4.853" r="4.853" transform="translate(22.565 245.84)" fill="#536dfe"/>
    <path id="Path_58" data-name="Path 58" d="M166.7,788.907S161.843,776.96,176.4,768Z" transform="translate(-133.305 -492.293)" fill="#3f3d56"/>
    <path id="Path_59" data-name="Path 59" d="M119.608,802.276s-2.209-12.7-19.3-12.6Z" transform="translate(-92.185 -505.879)" fill="#3f3d56"/>
    <ellipse id="Ellipse_41" data-name="Ellipse 41" cx="10.311" cy="10.311" rx="10.311" ry="10.311" transform="translate(247.289 -52.433) rotate(30)" fill="#950abe"/>
    <ellipse id="Ellipse_42" data-name="Ellipse 42" cx="6.505" cy="6.505" rx="6.505" ry="6.505" transform="translate(203.516 -33.632) rotate(30)" fill="#950abe"/>
    <ellipse id="Ellipse_43" data-name="Ellipse 43" cx="4.646" cy="4.646" rx="4.646" ry="4.646" transform="translate(158.712 -18.594) rotate(30)" fill="#950abe"/>
  </g>
</svg>
