<svg xmlns="http://www.w3.org/2000/svg" width="94" height="92" viewBox="0 0 94 92">
  <g id="Group_1" data-name="Group 1" transform="translate(-525 -339)" opacity="0.24">
    <circle id="Ellipse_8" data-name="Ellipse 8" cx="4.5" cy="4.5" r="4.5" transform="translate(525 339)" fill="#4d84f0" opacity="0.4"/>
    <circle id="Ellipse_9" data-name="Ellipse 9" cx="4.5" cy="4.5" r="4.5" transform="translate(537 339)" fill="#4d84f0" opacity="0.4"/>
    <circle id="Ellipse_10" data-name="Ellipse 10" cx="4.5" cy="4.5" r="4.5" transform="translate(549 339)" fill="#4d84f0" opacity="0.4"/>
    <circle id="Ellipse_11" data-name="Ellipse 11" cx="4.5" cy="4.5" r="4.5" transform="translate(525 351)" fill="#4d84f0" opacity="0.4"/>
    <circle id="Ellipse_12" data-name="Ellipse 12" cx="4.5" cy="4.5" r="4.5" transform="translate(537 351)" fill="#4d84f0" opacity="0.4"/>
    <circle id="Ellipse_13" data-name="Ellipse 13" cx="4.5" cy="4.5" r="4.5" transform="translate(549 351)" fill="#4d84f0" opacity="0.4"/>
    <circle id="Ellipse_14" data-name="Ellipse 14" cx="4.5" cy="4.5" r="4.5" transform="translate(525 363)" fill="#4d84f0" opacity="0.4"/>
    <circle id="Ellipse_15" data-name="Ellipse 15" cx="4.5" cy="4.5" r="4.5" transform="translate(537 363)" fill="#4d84f0" opacity="0.4"/>
    <circle id="Ellipse_16" data-name="Ellipse 16" cx="4.5" cy="4.5" r="4.5" transform="translate(549 363)" fill="#4d84f0" opacity="0.4"/>
    <circle id="Ellipse_17" data-name="Ellipse 17" cx="4.5" cy="4.5" r="4.5" transform="translate(562 339)" fill="#4d84f0" opacity="0.4"/>
    <circle id="Ellipse_18" data-name="Ellipse 18" cx="4.5" cy="4.5" r="4.5" transform="translate(574 339)" fill="#4d84f0" opacity="0.4"/>
    <circle id="Ellipse_19" data-name="Ellipse 19" cx="4.5" cy="4.5" r="4.5" transform="translate(586 339)" fill="#4d84f0" opacity="0.4"/>
    <circle id="Ellipse_20" data-name="Ellipse 20" cx="4.5" cy="4.5" r="4.5" transform="translate(562 351)" fill="#4d84f0" opacity="0.4"/>
    <circle id="Ellipse_21" data-name="Ellipse 21" cx="4.5" cy="4.5" r="4.5" transform="translate(574 351)" fill="#4d84f0" opacity="0.4"/>
    <circle id="Ellipse_22" data-name="Ellipse 22" cx="4.5" cy="4.5" r="4.5" transform="translate(586 351)" fill="#4d84f0" opacity="0.4"/>
    <circle id="Ellipse_23" data-name="Ellipse 23" cx="4.5" cy="4.5" r="4.5" transform="translate(562 363)" fill="#4d84f0" opacity="0.4"/>
    <circle id="Ellipse_24" data-name="Ellipse 24" cx="4.5" cy="4.5" r="4.5" transform="translate(574 363)" fill="#4d84f0" opacity="0.4"/>
    <circle id="Ellipse_25" data-name="Ellipse 25" cx="4.5" cy="4.5" r="4.5" transform="translate(586 363)" fill="#4d84f0" opacity="0.4"/>
    <circle id="Ellipse_26" data-name="Ellipse 26" cx="4.5" cy="4.5" r="4.5" transform="translate(525 374)" fill="#4d84f0" opacity="0.4"/>
    <circle id="Ellipse_27" data-name="Ellipse 27" cx="4.5" cy="4.5" r="4.5" transform="translate(537 374)" fill="#4d84f0" opacity="0.4"/>
    <circle id="Ellipse_28" data-name="Ellipse 28" cx="4.5" cy="4.5" r="4.5" transform="translate(549 374)" fill="#4d84f0" opacity="0.4"/>
    <circle id="Ellipse_29" data-name="Ellipse 29" cx="4.5" cy="4.5" r="4.5" transform="translate(525 386)" fill="#4d84f0" opacity="0.4"/>
    <circle id="Ellipse_30" data-name="Ellipse 30" cx="4.5" cy="4.5" r="4.5" transform="translate(537 386)" fill="#4d84f0" opacity="0.4"/>
    <circle id="Ellipse_31" data-name="Ellipse 31" cx="4.5" cy="4.5" r="4.5" transform="translate(549 386)" fill="#4d84f0" opacity="0.4"/>
    <circle id="Ellipse_32" data-name="Ellipse 32" cx="4.5" cy="4.5" r="4.5" transform="translate(525 398)" fill="#4d84f0" opacity="0.4"/>
    <circle id="Ellipse_33" data-name="Ellipse 33" cx="4.5" cy="4.5" r="4.5" transform="translate(537 398)" fill="#4d84f0" opacity="0.4"/>
    <circle id="Ellipse_34" data-name="Ellipse 34" cx="4.5" cy="4.5" r="4.5" transform="translate(549 398)" fill="#4d84f0" opacity="0.4"/>
    <circle id="Ellipse_35" data-name="Ellipse 35" cx="4.5" cy="4.5" r="4.5" transform="translate(562 374)" fill="#4d84f0" opacity="0.4"/>
    <circle id="Ellipse_36" data-name="Ellipse 36" cx="4.5" cy="4.5" r="4.5" transform="translate(574 374)" fill="#4d84f0" opacity="0.4"/>
    <circle id="Ellipse_37" data-name="Ellipse 37" cx="4.5" cy="4.5" r="4.5" transform="translate(586 374)" fill="#4d84f0" opacity="0.4"/>
    <circle id="Ellipse_38" data-name="Ellipse 38" cx="4.5" cy="4.5" r="4.5" transform="translate(562 386)" fill="#4d84f0" opacity="0.4"/>
    <circle id="Ellipse_39" data-name="Ellipse 39" cx="4.5" cy="4.5" r="4.5" transform="translate(574 386)" fill="#4d84f0" opacity="0.4"/>
    <circle id="Ellipse_40" data-name="Ellipse 40" cx="4.5" cy="4.5" r="4.5" transform="translate(586 386)" fill="#4d84f0" opacity="0.4"/>
    <circle id="Ellipse_41" data-name="Ellipse 41" cx="4.5" cy="4.5" r="4.5" transform="translate(562 398)" fill="#4d84f0" opacity="0.4"/>
    <circle id="Ellipse_42" data-name="Ellipse 42" cx="4.5" cy="4.5" r="4.5" transform="translate(574 398)" fill="#4d84f0" opacity="0.4"/>
    <circle id="Ellipse_43" data-name="Ellipse 43" cx="4.5" cy="4.5" r="4.5" transform="translate(586 398)" fill="#4d84f0" opacity="0.4"/>
    <circle id="Ellipse_44" data-name="Ellipse 44" cx="4.5" cy="4.5" r="4.5" transform="translate(525 339)" fill="#4d84f0" opacity="0.4"/>
    <circle id="Ellipse_45" data-name="Ellipse 45" cx="4.5" cy="4.5" r="4.5" transform="translate(537 339)" fill="#4d84f0" opacity="0.4"/>
    <circle id="Ellipse_46" data-name="Ellipse 46" cx="4.5" cy="4.5" r="4.5" transform="translate(549 339)" fill="#4d84f0" opacity="0.4"/>
    <circle id="Ellipse_47" data-name="Ellipse 47" cx="4.5" cy="4.5" r="4.5" transform="translate(525 351)" fill="#4d84f0" opacity="0.4"/>
    <circle id="Ellipse_48" data-name="Ellipse 48" cx="4.5" cy="4.5" r="4.5" transform="translate(537 351)" fill="#4d84f0" opacity="0.4"/>
    <circle id="Ellipse_49" data-name="Ellipse 49" cx="4.5" cy="4.5" r="4.5" transform="translate(549 351)" fill="#4d84f0" opacity="0.4"/>
    <circle id="Ellipse_50" data-name="Ellipse 50" cx="4.5" cy="4.5" r="4.5" transform="translate(525 363)" fill="#4d84f0" opacity="0.4"/>
    <circle id="Ellipse_51" data-name="Ellipse 51" cx="4.5" cy="4.5" r="4.5" transform="translate(537 363)" fill="#4d84f0" opacity="0.4"/>
    <circle id="Ellipse_52" data-name="Ellipse 52" cx="4.5" cy="4.5" r="4.5" transform="translate(549 363)" fill="#4d84f0" opacity="0.4"/>
    <circle id="Ellipse_53" data-name="Ellipse 53" cx="4.5" cy="4.5" r="4.5" transform="translate(562 339)" fill="#4d84f0" opacity="0.4"/>
    <circle id="Ellipse_54" data-name="Ellipse 54" cx="4.5" cy="4.5" r="4.5" transform="translate(574 339)" fill="#4d84f0" opacity="0.4"/>
    <circle id="Ellipse_55" data-name="Ellipse 55" cx="4.5" cy="4.5" r="4.5" transform="translate(586 339)" fill="#4d84f0" opacity="0.4"/>
    <circle id="Ellipse_56" data-name="Ellipse 56" cx="4.5" cy="4.5" r="4.5" transform="translate(562 351)" fill="#4d84f0" opacity="0.4"/>
    <circle id="Ellipse_57" data-name="Ellipse 57" cx="4.5" cy="4.5" r="4.5" transform="translate(574 351)" fill="#4d84f0" opacity="0.4"/>
    <circle id="Ellipse_58" data-name="Ellipse 58" cx="4.5" cy="4.5" r="4.5" transform="translate(586 351)" fill="#4d84f0" opacity="0.4"/>
    <circle id="Ellipse_59" data-name="Ellipse 59" cx="4.5" cy="4.5" r="4.5" transform="translate(562 363)" fill="#4d84f0" opacity="0.4"/>
    <circle id="Ellipse_60" data-name="Ellipse 60" cx="4.5" cy="4.5" r="4.5" transform="translate(574 363)" fill="#4d84f0" opacity="0.4"/>
    <circle id="Ellipse_61" data-name="Ellipse 61" cx="4.5" cy="4.5" r="4.5" transform="translate(586 363)" fill="#4d84f0" opacity="0.4"/>
    <circle id="Ellipse_62" data-name="Ellipse 62" cx="4.5" cy="4.5" r="4.5" transform="translate(525 374)" fill="#4d84f0" opacity="0.4"/>
    <circle id="Ellipse_63" data-name="Ellipse 63" cx="4.5" cy="4.5" r="4.5" transform="translate(537 374)" fill="#4d84f0" opacity="0.4"/>
    <circle id="Ellipse_64" data-name="Ellipse 64" cx="4.5" cy="4.5" r="4.5" transform="translate(549 374)" fill="#4d84f0" opacity="0.4"/>
    <circle id="Ellipse_65" data-name="Ellipse 65" cx="4.5" cy="4.5" r="4.5" transform="translate(525 386)" fill="#4d84f0" opacity="0.4"/>
    <circle id="Ellipse_66" data-name="Ellipse 66" cx="4.5" cy="4.5" r="4.5" transform="translate(537 386)" fill="#4d84f0" opacity="0.4"/>
    <circle id="Ellipse_67" data-name="Ellipse 67" cx="4.5" cy="4.5" r="4.5" transform="translate(549 386)" fill="#4d84f0" opacity="0.4"/>
    <circle id="Ellipse_68" data-name="Ellipse 68" cx="4.5" cy="4.5" r="4.5" transform="translate(525 398)" fill="#4d84f0" opacity="0.4"/>
    <circle id="Ellipse_69" data-name="Ellipse 69" cx="4.5" cy="4.5" r="4.5" transform="translate(537 398)" fill="#4d84f0" opacity="0.4"/>
    <circle id="Ellipse_70" data-name="Ellipse 70" cx="4.5" cy="4.5" r="4.5" transform="translate(549 398)" fill="#4d84f0" opacity="0.4"/>
    <circle id="Ellipse_71" data-name="Ellipse 71" cx="4.5" cy="4.5" r="4.5" transform="translate(562 374)" fill="#4d84f0" opacity="0.4"/>
    <circle id="Ellipse_72" data-name="Ellipse 72" cx="4.5" cy="4.5" r="4.5" transform="translate(574 374)" fill="#4d84f0" opacity="0.4"/>
    <circle id="Ellipse_73" data-name="Ellipse 73" cx="4.5" cy="4.5" r="4.5" transform="translate(586 374)" fill="#4d84f0" opacity="0.4"/>
    <circle id="Ellipse_74" data-name="Ellipse 74" cx="4.5" cy="4.5" r="4.5" transform="translate(562 386)" fill="#4d84f0" opacity="0.4"/>
    <circle id="Ellipse_75" data-name="Ellipse 75" cx="4.5" cy="4.5" r="4.5" transform="translate(574 386)" fill="#4d84f0" opacity="0.4"/>
    <circle id="Ellipse_76" data-name="Ellipse 76" cx="4.5" cy="4.5" r="4.5" transform="translate(586 386)" fill="#4d84f0" opacity="0.4"/>
    <circle id="Ellipse_77" data-name="Ellipse 77" cx="4.5" cy="4.5" r="4.5" transform="translate(562 398)" fill="#4d84f0" opacity="0.4"/>
    <circle id="Ellipse_78" data-name="Ellipse 78" cx="4.5" cy="4.5" r="4.5" transform="translate(574 398)" fill="#4d84f0" opacity="0.4"/>
    <circle id="Ellipse_79" data-name="Ellipse 79" cx="4.5" cy="4.5" r="4.5" transform="translate(586 398)" fill="#4d84f0" opacity="0.4"/>
    <circle id="Ellipse_80" data-name="Ellipse 80" cx="4.5" cy="4.5" r="4.5" transform="translate(598 339)" fill="#4d84f0" opacity="0.4"/>
    <circle id="Ellipse_81" data-name="Ellipse 81" cx="4.5" cy="4.5" r="4.5" transform="translate(610 339)" fill="#4d84f0" opacity="0.4"/>
    <circle id="Ellipse_82" data-name="Ellipse 82" cx="4.5" cy="4.5" r="4.5" transform="translate(598 351)" fill="#4d84f0" opacity="0.4"/>
    <circle id="Ellipse_83" data-name="Ellipse 83" cx="4.5" cy="4.5" r="4.5" transform="translate(610 351)" fill="#4d84f0" opacity="0.4"/>
    <circle id="Ellipse_84" data-name="Ellipse 84" cx="4.5" cy="4.5" r="4.5" transform="translate(598 363)" fill="#4d84f0" opacity="0.4"/>
    <circle id="Ellipse_85" data-name="Ellipse 85" cx="4.5" cy="4.5" r="4.5" transform="translate(610 363)" fill="#4d84f0" opacity="0.4"/>
    <circle id="Ellipse_86" data-name="Ellipse 86" cx="4.5" cy="4.5" r="4.5" transform="translate(598 374)" fill="#4d84f0" opacity="0.4"/>
    <circle id="Ellipse_87" data-name="Ellipse 87" cx="4.5" cy="4.5" r="4.5" transform="translate(610 374)" fill="#4d84f0" opacity="0.4"/>
    <circle id="Ellipse_88" data-name="Ellipse 88" cx="4.5" cy="4.5" r="4.5" transform="translate(598 386)" fill="#4d84f0" opacity="0.4"/>
    <circle id="Ellipse_89" data-name="Ellipse 89" cx="4.5" cy="4.5" r="4.5" transform="translate(610 386)" fill="#4d84f0" opacity="0.4"/>
    <circle id="Ellipse_90" data-name="Ellipse 90" cx="4.5" cy="4.5" r="4.5" transform="translate(598 398)" fill="#4d84f0" opacity="0.4"/>
    <circle id="Ellipse_91" data-name="Ellipse 91" cx="4.5" cy="4.5" r="4.5" transform="translate(610 398)" fill="#4d84f0" opacity="0.4"/>
    <circle id="Ellipse_92" data-name="Ellipse 92" cx="4.5" cy="4.5" r="4.5" transform="translate(598 339)" fill="#4d84f0" opacity="0.4"/>
    <circle id="Ellipse_93" data-name="Ellipse 93" cx="4.5" cy="4.5" r="4.5" transform="translate(610 339)" fill="#4d84f0" opacity="0.4"/>
    <circle id="Ellipse_94" data-name="Ellipse 94" cx="4.5" cy="4.5" r="4.5" transform="translate(598 351)" fill="#4d84f0" opacity="0.4"/>
    <circle id="Ellipse_95" data-name="Ellipse 95" cx="4.5" cy="4.5" r="4.5" transform="translate(610 351)" fill="#4d84f0" opacity="0.4"/>
    <circle id="Ellipse_96" data-name="Ellipse 96" cx="4.5" cy="4.5" r="4.5" transform="translate(598 363)" fill="#4d84f0" opacity="0.4"/>
    <circle id="Ellipse_97" data-name="Ellipse 97" cx="4.5" cy="4.5" r="4.5" transform="translate(610 363)" fill="#4d84f0" opacity="0.4"/>
    <circle id="Ellipse_98" data-name="Ellipse 98" cx="4.5" cy="4.5" r="4.5" transform="translate(598 374)" fill="#4d84f0" opacity="0.4"/>
    <circle id="Ellipse_99" data-name="Ellipse 99" cx="4.5" cy="4.5" r="4.5" transform="translate(610 374)" fill="#4d84f0" opacity="0.4"/>
    <circle id="Ellipse_100" data-name="Ellipse 100" cx="4.5" cy="4.5" r="4.5" transform="translate(598 386)" fill="#4d84f0" opacity="0.4"/>
    <circle id="Ellipse_101" data-name="Ellipse 101" cx="4.5" cy="4.5" r="4.5" transform="translate(610 386)" fill="#4d84f0" opacity="0.4"/>
    <circle id="Ellipse_102" data-name="Ellipse 102" cx="4.5" cy="4.5" r="4.5" transform="translate(598 398)" fill="#4d84f0" opacity="0.4"/>
    <circle id="Ellipse_103" data-name="Ellipse 103" cx="4.5" cy="4.5" r="4.5" transform="translate(610 398)" fill="#4d84f0" opacity="0.4"/>
    <circle id="Ellipse_104" data-name="Ellipse 104" cx="4.5" cy="4.5" r="4.5" transform="translate(525 410)" fill="#4d84f0" opacity="0.4"/>
    <circle id="Ellipse_105" data-name="Ellipse 105" cx="4.5" cy="4.5" r="4.5" transform="translate(537 410)" fill="#4d84f0" opacity="0.4"/>
    <circle id="Ellipse_106" data-name="Ellipse 106" cx="4.5" cy="4.5" r="4.5" transform="translate(549 410)" fill="#4d84f0" opacity="0.4"/>
    <circle id="Ellipse_107" data-name="Ellipse 107" cx="4.5" cy="4.5" r="4.5" transform="translate(525 422)" fill="#4d84f0" opacity="0.4"/>
    <circle id="Ellipse_108" data-name="Ellipse 108" cx="4.5" cy="4.5" r="4.5" transform="translate(537 422)" fill="#4d84f0" opacity="0.4"/>
    <circle id="Ellipse_109" data-name="Ellipse 109" cx="4.5" cy="4.5" r="4.5" transform="translate(549 422)" fill="#4d84f0" opacity="0.4"/>
    <circle id="Ellipse_110" data-name="Ellipse 110" cx="4.5" cy="4.5" r="4.5" transform="translate(562 410)" fill="#4d84f0" opacity="0.4"/>
    <circle id="Ellipse_111" data-name="Ellipse 111" cx="4.5" cy="4.5" r="4.5" transform="translate(574 410)" fill="#4d84f0" opacity="0.4"/>
    <circle id="Ellipse_112" data-name="Ellipse 112" cx="4.5" cy="4.5" r="4.5" transform="translate(586 410)" fill="#4d84f0" opacity="0.4"/>
    <circle id="Ellipse_113" data-name="Ellipse 113" cx="4.5" cy="4.5" r="4.5" transform="translate(562 422)" fill="#4d84f0" opacity="0.4"/>
    <circle id="Ellipse_114" data-name="Ellipse 114" cx="4.5" cy="4.5" r="4.5" transform="translate(574 422)" fill="#4d84f0" opacity="0.4"/>
    <circle id="Ellipse_115" data-name="Ellipse 115" cx="4.5" cy="4.5" r="4.5" transform="translate(586 422)" fill="#4d84f0" opacity="0.4"/>
    <circle id="Ellipse_116" data-name="Ellipse 116" cx="4.5" cy="4.5" r="4.5" transform="translate(525 410)" fill="#4d84f0" opacity="0.4"/>
    <circle id="Ellipse_117" data-name="Ellipse 117" cx="4.5" cy="4.5" r="4.5" transform="translate(537 410)" fill="#4d84f0" opacity="0.4"/>
    <circle id="Ellipse_118" data-name="Ellipse 118" cx="4.5" cy="4.5" r="4.5" transform="translate(549 410)" fill="#4d84f0" opacity="0.4"/>
    <circle id="Ellipse_119" data-name="Ellipse 119" cx="4.5" cy="4.5" r="4.5" transform="translate(525 422)" fill="#4d84f0" opacity="0.4"/>
    <circle id="Ellipse_120" data-name="Ellipse 120" cx="4.5" cy="4.5" r="4.5" transform="translate(537 422)" fill="#4d84f0" opacity="0.4"/>
    <circle id="Ellipse_121" data-name="Ellipse 121" cx="4.5" cy="4.5" r="4.5" transform="translate(549 422)" fill="#4d84f0" opacity="0.4"/>
    <circle id="Ellipse_122" data-name="Ellipse 122" cx="4.5" cy="4.5" r="4.5" transform="translate(562 410)" fill="#4d84f0" opacity="0.4"/>
    <circle id="Ellipse_123" data-name="Ellipse 123" cx="4.5" cy="4.5" r="4.5" transform="translate(574 410)" fill="#4d84f0" opacity="0.4"/>
    <circle id="Ellipse_124" data-name="Ellipse 124" cx="4.5" cy="4.5" r="4.5" transform="translate(586 410)" fill="#4d84f0" opacity="0.4"/>
    <circle id="Ellipse_125" data-name="Ellipse 125" cx="4.5" cy="4.5" r="4.5" transform="translate(562 422)" fill="#4d84f0" opacity="0.4"/>
    <circle id="Ellipse_126" data-name="Ellipse 126" cx="4.5" cy="4.5" r="4.5" transform="translate(574 422)" fill="#4d84f0" opacity="0.4"/>
    <circle id="Ellipse_127" data-name="Ellipse 127" cx="4.5" cy="4.5" r="4.5" transform="translate(586 422)" fill="#4d84f0" opacity="0.4"/>
    <circle id="Ellipse_128" data-name="Ellipse 128" cx="4.5" cy="4.5" r="4.5" transform="translate(598 410)" fill="#4d84f0" opacity="0.4"/>
    <circle id="Ellipse_129" data-name="Ellipse 129" cx="4.5" cy="4.5" r="4.5" transform="translate(610 410)" fill="#4d84f0" opacity="0.4"/>
    <circle id="Ellipse_130" data-name="Ellipse 130" cx="4.5" cy="4.5" r="4.5" transform="translate(598 422)" fill="#4d84f0" opacity="0.4"/>
    <circle id="Ellipse_131" data-name="Ellipse 131" cx="4.5" cy="4.5" r="4.5" transform="translate(610 422)" fill="#4d84f0" opacity="0.4"/>
    <circle id="Ellipse_132" data-name="Ellipse 132" cx="4.5" cy="4.5" r="4.5" transform="translate(598 410)" fill="#4d84f0" opacity="0.4"/>
    <circle id="Ellipse_133" data-name="Ellipse 133" cx="4.5" cy="4.5" r="4.5" transform="translate(610 410)" fill="#4d84f0" opacity="0.4"/>
    <circle id="Ellipse_134" data-name="Ellipse 134" cx="4.5" cy="4.5" r="4.5" transform="translate(598 422)" fill="#4d84f0" opacity="0.4"/>
    <circle id="Ellipse_135" data-name="Ellipse 135" cx="4.5" cy="4.5" r="4.5" transform="translate(610 422)" fill="#4d84f0" opacity="0.4"/>
    <circle id="Ellipse_136" data-name="Ellipse 136" cx="4.5" cy="4.5" r="4.5" transform="translate(610 374)" fill="#4d84f0" opacity="0.4"/>
    <circle id="Ellipse_137" data-name="Ellipse 137" cx="4.5" cy="4.5" r="4.5" transform="translate(610 386)" fill="#4d84f0" opacity="0.4"/>
    <circle id="Ellipse_138" data-name="Ellipse 138" cx="4.5" cy="4.5" r="4.5" transform="translate(610 398)" fill="#4d84f0" opacity="0.4"/>
  </g>
</svg>
