<svg xmlns="http://www.w3.org/2000/svg" width="157.366" height="155.394" viewBox="0 0 157.366 155.394">
  <g id="Polygon_1" data-name="Polygon 1" transform="translate(0 76.492) rotate(-40)" fill="none" opacity="0.54">
    <path d="M50.841,14.99a10,10,0,0,1,17.318,0L110.334,88a10,10,0,0,1-8.659,15H17.325A10,10,0,0,1,8.666,88Z" stroke="none"/>
    <path d="M 59.50000381469727 17.99171447753906 C 58.97337341308594 17.99171447753906 58.24543762207031 18.16512298583984 57.7681770324707 18.99127960205078 L 15.59348297119141 91.99960327148438 C 15.11605072021484 92.82608032226563 15.32976531982422 93.54349517822266 15.59313201904297 93.99977874755859 C 15.85650634765625 94.45608520507813 16.37081146240234 94.99999237060547 17.32530975341797 94.99999237060547 L 101.6746978759766 94.99999237060547 C 102.6291961669922 94.99999237060547 103.1435012817383 94.45608520507813 103.4068756103516 93.99977874755859 C 103.6702423095703 93.54349517822266 103.8839569091797 92.82610321044922 103.4065017700195 91.99958038330078 L 61.23178482055664 18.99127960205078 C 60.75454711914063 18.16512298583984 60.02663421630859 17.99171447753906 59.50000381469727 17.99171447753906 M 59.5 9.991706848144531 C 62.86714553833008 9.991706848144531 66.23428344726563 11.65767669677734 68.15904235839844 14.9896240234375 L 110.333740234375 87.99793243408203 C 114.1848983764648 94.66458129882813 109.3737640380859 102.9999923706055 101.6746978759766 102.9999923706055 L 17.32530975341797 102.9999923706055 C 9.626243591308594 102.9999923706055 4.815109252929688 94.66458129882813 8.666244506835938 87.99793243408203 L 50.8409423828125 14.9896240234375 C 52.76570892333984 11.65767669677734 56.13285827636719 9.991706848144531 59.5 9.991706848144531 Z" stroke="none" fill="#950abe"/>
  </g>
</svg>
