<svg xmlns="http://www.w3.org/2000/svg" width="112.7" height="110.237" viewBox="0 0 112.7 110.237">
  <g id="Polygon_8" data-name="Polygon 8" transform="matrix(0.799, -0.602, 0.602, 0.799, 0, 51.667)" fill="none" opacity="0.68">
    <path d="M34.3,14.745a10,10,0,0,1,17.261,0L77.042,58.286a10,10,0,0,1-8.63,15.051H17.44A10,10,0,0,1,8.81,58.286Z" stroke="none"/>
    <path d="M 42.92588043212891 19.79610824584961 L 17.44026184082031 63.33744812011719 L 68.4114990234375 63.33744812011719 L 42.96606063842773 19.80068588256836 C 42.96210098266602 19.79940795898438 42.94713973999023 19.79610824584961 42.92588043212891 19.79610824584961 M 42.92588043212891 9.796104431152344 C 46.27555465698242 9.796104431152344 49.62522888183594 11.44561004638672 51.55620193481445 14.74460601806641 L 77.04182434082031 58.28594970703125 C 80.94384002685547 64.95242309570313 76.13600158691406 73.33744812011719 68.4114990234375 73.33744812011719 L 17.44026184082031 73.33744812011719 C 9.71575927734375 73.33744812011719 4.907920837402344 64.95242309570313 8.809944152832031 58.28594970703125 L 34.29555892944336 14.74460601806641 C 36.22653198242188 11.44561004638672 39.57620620727539 9.796104431152344 42.92588043212891 9.796104431152344 Z" stroke="none" fill="#2196f3"/>
  </g>
</svg>
