<svg xmlns="http://www.w3.org/2000/svg" width="93.599" height="92.367" viewBox="0 0 93.599 92.367">
  <g id="Polygon_2" data-name="Polygon 2" transform="translate(0 45.638) rotate(-40)" fill="none" opacity="0.15">
    <path d="M26.857,14.851a10,10,0,0,1,17.286,0L62.253,45.97A10,10,0,0,1,53.61,61H17.39A10,10,0,0,1,8.747,45.97Z" stroke="none"/>
    <path d="M 35.5 17.8811149597168 C 34.97533416748047 17.8811149597168 34.24954986572266 18.05356216430664 33.77141571044922 18.87512969970703 L 15.66123199462891 49.99401092529297 C 15.18024826049805 50.82051086425781 15.3929328918457 51.5394287109375 15.65605163574219 51.99699401855469 C 15.91916656494141 52.45456314086914 16.43355178833008 52.99999618530273 17.38983154296875 52.99999618530273 L 53.61016845703125 52.99999618530273 C 54.56645202636719 52.99999618530273 55.08083343505859 52.45456314086914 55.34394836425781 51.99699401855469 C 55.6070671081543 51.53944396972656 55.81974792480469 50.82052993774414 55.33874893188477 49.99401092529297 L 37.22858428955078 18.87514495849609 C 36.75045013427734 18.05356216430664 36.02466583251953 17.8811149597168 35.5 17.8811149597168 M 35.49999237060547 9.881114959716797 C 38.85730743408203 9.881114959716797 42.21462249755859 11.53781127929688 44.14291381835938 14.85121154785156 L 62.25308227539063 45.97009658813477 C 66.13285064697266 52.63671112060547 61.32353210449219 60.99999618530273 53.61016845703125 60.99999618530273 L 17.38983154296875 60.99999618530273 C 9.676467895507813 60.99999618530273 4.867149353027344 52.63671112060547 8.746898651123047 45.97009658813477 L 26.85708236694336 14.85121154785156 C 28.78536605834961 11.53781127929688 32.14267730712891 9.881114959716797 35.49999237060547 9.881114959716797 Z" stroke="none" fill="#950abe"/>
  </g>
</svg>
